<svg width="300" height="81" viewBox="0 0 300 81" fill="none" xmlns="http://www.w3.org/2000/svg">
<path d="M237.868 64.4364L246.866 40.5273H252.206L240.316 71.0519C239.717 72.5798 239.018 73.8992 238.219 75.0104C237.429 76.1216 236.518 77.038 235.485 77.7586C234.46 78.4878 233.31 79.0261 232.033 79.3733C230.766 79.7206 229.355 79.8938 227.801 79.8938C227.376 79.8938 226.964 79.8808 226.564 79.8547C226.165 79.8287 225.778 79.7939 225.405 79.7505V75.1406C225.865 75.2014 226.291 75.2449 226.682 75.2709C227.081 75.297 227.463 75.31 227.827 75.31C229.564 75.31 230.979 74.9716 232.073 74.2945C233.166 73.6173 233.987 72.5364 234.534 71.0519L234.899 70.0878L223.504 40.5273H228.973L237.868 64.4364ZM182.8 31.2164C185.032 31.2164 187.085 31.5634 188.96 32.2579C190.835 32.9524 192.494 33.9552 193.935 35.266C195.376 36.5769 196.574 38.1744 197.529 40.0583C198.493 41.9422 199.17 44.0735 199.561 46.4523H194.091C193.77 44.7855 193.288 43.3227 192.646 42.0639C192.012 40.7965 191.218 39.7372 190.263 38.8864C189.316 38.027 188.218 37.38 186.968 36.946C185.727 36.5119 184.341 36.2946 182.813 36.2946C180.93 36.2946 179.236 36.6249 177.735 37.2847C176.241 37.9358 174.974 38.8777 173.932 40.1104C172.891 41.3345 172.092 42.832 171.536 44.603C170.989 46.3741 170.716 48.38 170.716 50.6198C170.716 52.8596 170.989 54.8651 171.536 56.6361C172.092 58.4071 172.891 59.9089 173.932 61.1417C174.974 62.3657 176.241 63.3076 177.735 63.9674C179.236 64.6185 180.93 64.9445 182.813 64.9445C184.341 64.9445 185.727 64.7272 186.968 64.2931C188.218 63.859 189.316 63.2164 190.263 62.3657C191.218 61.5062 192.012 60.4469 192.646 59.1882C193.288 57.9207 193.77 56.4536 194.091 54.7868H199.561C199.17 57.1655 198.493 59.2969 197.529 61.1808C196.574 63.0647 195.376 64.6621 193.935 65.973C192.494 67.2839 190.835 68.2866 188.96 68.9811C187.085 69.6756 185.032 70.0233 182.8 70.0233C181.064 70.0233 179.423 69.8104 177.878 69.385C176.333 68.9596 174.909 68.3518 173.607 67.5618C172.313 66.763 171.15 65.7952 170.117 64.6579C169.083 63.5119 168.202 62.2224 167.473 60.79C166.753 59.3488 166.201 57.7731 165.819 56.0628C165.437 54.3527 165.246 52.5384 165.246 50.6198C165.246 48.6925 165.437 46.8778 165.819 45.1762C166.201 43.4659 166.753 41.8946 167.473 40.4621C168.202 39.021 169.083 37.7315 170.117 36.5942C171.15 35.4483 172.313 34.4803 173.607 33.6903C174.909 32.8917 176.333 32.2795 177.878 31.8541C179.423 31.4287 181.064 31.2164 182.8 31.2164ZM120.15 39.7456C122.207 39.7456 124.065 40.1014 125.724 40.8133C127.382 41.5164 128.797 42.5193 129.969 43.8214C131.141 45.1236 132.044 46.6999 132.678 48.5491C133.311 50.3982 133.628 52.4689 133.628 54.7607C133.628 55.0905 133.619 55.416 133.602 55.7372C133.593 56.0584 133.572 56.4147 133.537 56.8054H111.581C111.737 58.1161 112.05 59.2967 112.519 60.347C112.996 61.3888 113.613 62.2747 114.368 63.004C115.132 63.7332 116.026 64.2933 117.05 64.6839C118.075 65.0659 119.208 65.2565 120.449 65.2565C122.359 65.2565 123.957 64.7964 125.241 63.8762C126.526 62.9473 127.52 61.5627 128.224 59.7223H133.498C133.125 61.3284 132.543 62.7694 131.753 64.0456C130.963 65.3218 129.999 66.4027 128.862 67.2882C127.733 68.1737 126.448 68.851 125.007 69.3198C123.566 69.7886 122.003 70.0227 120.319 70.0227C118.913 70.0227 117.584 69.8581 116.334 69.5283C115.093 69.1984 113.947 68.7253 112.896 68.1089C111.855 67.4839 110.917 66.7282 110.084 65.8428C109.259 64.9486 108.555 63.9415 107.974 62.8216C107.401 61.693 106.962 60.46 106.659 59.1231C106.355 57.7775 106.203 56.3494 106.203 54.8389C106.203 53.3283 106.355 51.9084 106.659 50.5801C106.962 49.252 107.396 48.0281 107.961 46.9083C108.534 45.7883 109.228 44.7851 110.045 43.8995C110.861 43.0141 111.785 42.2634 112.818 41.647C113.851 41.0306 114.984 40.5619 116.217 40.2407C117.45 39.9108 118.761 39.7456 120.15 39.7456ZM265.739 39.7456C267.692 39.7456 269.429 39.9673 270.948 40.41C272.476 40.8528 273.761 41.4862 274.802 42.3108C275.853 43.1269 276.652 44.1214 277.199 45.2935C277.746 46.4567 278.019 47.7632 278.019 49.2129H272.862C272.862 48.475 272.706 47.8063 272.394 47.2073C272.09 46.5996 271.634 46.083 271.026 45.6576C270.427 45.2235 269.685 44.8895 268.799 44.6551C267.914 44.4207 266.894 44.3034 265.739 44.3034C264.697 44.3034 263.747 44.399 262.887 44.59C262.036 44.781 261.302 45.0548 260.686 45.4107C260.07 45.758 259.592 46.1789 259.254 46.6738C258.915 47.1599 258.746 47.7025 258.746 48.3016C258.746 48.753 258.841 49.1523 259.032 49.4995C259.223 49.838 259.483 50.133 259.813 50.3847C260.143 50.6365 260.53 50.8538 260.973 51.0361C261.415 51.2097 261.889 51.3619 262.392 51.4921C262.904 51.6223 263.434 51.7353 263.981 51.8308C264.528 51.9176 265.066 52.0039 265.596 52.0907L267.523 52.3903C268.322 52.5119 269.159 52.6553 270.036 52.8202C270.922 52.9765 271.79 53.1895 272.641 53.4586C273.5 53.719 274.316 54.0531 275.089 54.4611C275.87 54.8604 276.556 55.3639 277.147 55.9717C277.737 56.5794 278.206 57.3089 278.553 58.1596C278.9 59.0017 279.074 60.0045 279.074 61.1678C279.074 62.5828 278.796 63.8419 278.24 64.9445C277.685 66.0382 276.865 66.9629 275.779 67.7181C274.694 68.4734 273.353 69.0464 271.755 69.4371C270.158 69.8278 268.313 70.0227 266.22 70.0227C264.041 70.0227 262.131 69.8104 260.491 69.385C258.85 68.9596 257.482 68.3344 256.388 67.5097C255.294 66.6849 254.47 65.6735 253.914 64.4755C253.367 63.2687 253.094 61.8837 253.094 60.321H258.238C258.238 61.9705 258.889 63.2426 260.191 64.1368C261.493 65.0223 263.499 65.4649 266.207 65.465C267.431 65.465 268.521 65.3737 269.476 65.1914C270.431 65.0091 271.239 64.7402 271.898 64.3843C272.558 64.0284 273.062 63.59 273.409 63.0691C273.756 62.5483 273.93 61.9534 273.93 61.285C273.93 60.7642 273.83 60.3084 273.631 59.9177C273.431 59.5184 273.153 59.1751 272.797 58.8886C272.441 58.5935 272.02 58.3419 271.534 58.1336C271.056 57.9166 270.535 57.7297 269.971 57.5734C269.407 57.4171 268.816 57.2824 268.2 57.1696C267.592 57.048 266.976 56.9356 266.351 56.8315L264.437 56.5058C263.708 56.3842 262.935 56.2452 262.119 56.0889C261.302 55.9239 260.49 55.7197 259.683 55.4766C258.884 55.2249 258.116 54.9125 257.378 54.5392C256.649 54.1573 256.002 53.6885 255.438 53.1329C254.882 52.5773 254.435 51.913 254.097 51.1403C253.767 50.3677 253.602 49.4605 253.602 48.4188C253.602 47.0992 253.88 45.9054 254.435 44.8375C255 43.7697 255.802 42.8582 256.844 42.103C257.895 41.3477 259.167 40.766 260.66 40.3579C262.162 39.9499 263.855 39.7456 265.739 39.7456ZM94.7979 40.5267H104.304V44.9548H94.7979V59.7484C94.7979 61.6495 95.1537 63.0559 95.8656 63.9674C96.5861 64.8703 97.7149 65.3216 99.2515 65.3217C99.8505 65.3217 100.563 65.2521 101.387 65.1132C102.221 64.9743 103.193 64.7576 104.304 64.4625V69.0202C102.108 69.68 100.129 70.0097 98.3662 70.0097C96.9338 70.0097 95.666 69.7887 94.5634 69.3459C93.4696 68.9118 92.5494 68.2649 91.8028 67.4054C91.0562 66.5373 90.4875 65.465 90.0968 64.1889C89.7148 62.9041 89.5236 61.4195 89.5236 59.7354V44.9548H85.6172V40.5267H89.5236V33.9118H94.7979V40.5267ZM290.493 40.5267H300V44.9548H290.493V59.7484C290.493 61.6495 290.849 63.0559 291.561 63.9674C292.281 64.8703 293.41 65.3216 294.947 65.3217C295.546 65.3217 296.258 65.2521 297.083 65.1132C297.916 64.9743 298.888 64.7576 300 64.4625V69.0202C297.803 69.68 295.824 70.0097 294.061 70.0097C292.629 70.0097 291.361 69.7887 290.259 69.3459C289.165 68.9118 288.245 68.2649 287.498 67.4054C286.751 66.5373 286.183 65.465 285.792 64.1889C285.41 62.9041 285.219 61.4195 285.219 59.7354V44.9548H281.312V40.5267H285.219V33.9118H290.493V40.5267ZM52.4583 69.2417H47.184V40.5267H52.4583V69.2417ZM72.5853 39.7456C74.2173 39.7456 75.6802 40.0536 76.9737 40.67C78.2673 41.2864 79.3612 42.1766 80.2554 43.34C81.1583 44.4946 81.8444 45.9052 82.3132 47.572C82.7906 49.2302 83.029 51.1014 83.029 53.185V69.2417H77.7554V53.185C77.7554 50.3028 77.1431 48.1366 75.9191 46.6868C74.695 45.2369 72.8499 44.5118 70.3842 44.5118C69.0559 44.5118 67.8664 44.7204 66.8159 45.1371C65.7742 45.5452 64.8888 46.1443 64.1595 46.9343C63.439 47.7156 62.8833 48.6792 62.4926 49.8252C62.1107 50.9624 61.9194 52.2558 61.9194 53.7055V69.2417H56.6457V40.5273H61.9194V48.822C62.2667 47.4071 62.7659 46.1397 63.417 45.0199C64.0681 43.9 64.8498 42.9494 65.7613 42.1681C66.6729 41.3868 67.7016 40.7877 68.8476 40.3709C70.0023 39.9542 71.2483 39.7456 72.5853 39.7456ZM142.395 69.2417H137.121V30.6953H142.395V69.2417ZM151.857 69.2417H146.583V30.6953H151.857V69.2417ZM161.319 69.2417H156.045V40.5267H161.319V69.2417ZM208.983 49.6949C209.322 48.2624 209.804 46.9816 210.429 45.853C211.063 44.7157 211.844 43.7522 212.773 42.9622C213.702 42.1721 214.774 41.5687 215.99 41.152C217.214 40.7353 218.585 40.5273 220.105 40.5273H221.42V45.5534H220.118C218.017 45.5534 216.255 45.749 214.831 46.1396C213.407 46.5216 212.261 47.1034 211.393 47.8847C210.533 48.666 209.917 49.6513 209.544 50.8407C209.17 52.0214 208.983 53.4108 208.983 55.0082V69.2417H203.71V40.5273H208.983V49.6949ZM120.176 44.5118C119.03 44.5118 117.979 44.69 117.024 45.0459C116.069 45.3932 115.227 45.9011 114.498 46.5695C113.778 47.2293 113.178 48.0408 112.701 49.0044C112.223 49.9594 111.885 51.0404 111.685 52.247H128.172C127.998 50.9969 127.694 49.8942 127.26 48.9393C126.826 47.9757 126.27 47.1685 125.593 46.5174C124.916 45.8577 124.122 45.3585 123.21 45.0199C122.308 44.6813 121.296 44.5118 120.176 44.5118ZM52.5886 37.2065H47.0537V30.6953H52.5886V37.2065ZM161.449 37.2065H155.915V30.6953H161.449V37.2065Z" fill="#52D7EE"/>
<path d="M10.5635 17.496H44.0306L19.2731 0H47.661L72.4184 17.496H47.8883C45.4343 17.496 42.9594 17.6181 40.6166 18.3486C21.3112 24.3677 7.2417 52.2773 35.6459 80.6761C21.8579 76.9823 -19.1609 47.215 10.5635 17.496Z" fill="#52D7EE"/>
<path d="M19.2734 0L44.0309 17.496H72.4187L47.6613 0H19.2734Z" fill="white"/>
</svg>
